<?xml version="1.0" encoding="utf-8"?>
<!-- Generator: Adobe Illustrator 14.0.0, SVG Export Plug-In . SVG Version: 6.00 Build 43363)  -->
<!DOCTYPE svg PUBLIC "-//W3C//DTD SVG 1.1//EN" "http://www.w3.org/Graphics/SVG/1.1/DTD/svg11.dtd">
<svg version="1.1"
	 id="svg2816" xmlns:svg="http://www.w3.org/2000/svg" xmlns:dc="http://purl.org/dc/elements/1.1/" sodipodi:docname="redbrick2010_4.svg" xmlns:cc="http://creativecommons.org/ns#" xmlns:sodipodi="http://sodipodi.sourceforge.net/DTD/sodipodi-0.dtd" xmlns:inkscape="http://www.inkscape.org/namespaces/inkscape" inkscape:export-ydpi="128.47" inkscape:export-xdpi="128.47" inkscape:version="0.47 r22583" xmlns:rdf="http://www.w3.org/1999/02/22-rdf-syntax-ns#" inkscape:export-filename="/home/andrew/redbrick2010_4.png"
	 xmlns="http://www.w3.org/2000/svg" xmlns:xlink="http://www.w3.org/1999/xlink" x="0px" y="0px" width="841.89px"
	 height="595.275px" viewBox="0 0 841.89 595.275" enable-background="new 0 0 841.89 595.275" xml:space="preserve">
<g id="layer2" inkscape:label="background" inkscape:groupmode="layer">
	
		<rect id="rect4519" x="17.275" y="223.547" fill="#222222" stroke="#FFFFFF" stroke-width="1.5945" width="1005.393" height="263.729"/>
</g>
<sodipodi:namedview  id="namedview2820" inkscape:window-y="25" inkscape:window-x="0" inkscape:window-height="1129" inkscape:window-width="1920" showgrid="false" inkscape:current-layer="layer2" inkscape:cy="379.1625" inkscape:cx="634.49324" inkscape:zoom="1.2279853" inkscape:pageshadow="2" inkscape:pageopacity="0.0" borderopacity="1.0" bordercolor="#666666" pagecolor="#ffffff" inkscape:document-units="mm" inkscape:window-maximized="1">
	</sodipodi:namedview>
<rect x="0" y="223.547" width="1005.393" height="263.729"/>
<defs>
	
	
		<inkscape:perspective  id="perspective2825" inkscape:vp_x="0 : 372.04724 : 1" inkscape:persp3d-origin="526.18109 : 248.03149 : 1" sodipodi:type="inkscape:persp3d" inkscape:vp_z="1052.3622 : 372.04724 : 1" inkscape:vp_y="0 : 1000 : 0">
		</inkscape:perspective>
	
		<inkscape:perspective  id="perspective3722" inkscape:vp_x="0 : 0.5 : 1" inkscape:persp3d-origin="0.5 : 0.33333333 : 1" sodipodi:type="inkscape:persp3d" inkscape:vp_z="1 : 0.5 : 1" inkscape:vp_y="0 : 1000 : 0">
		</inkscape:perspective>
	
		<inkscape:perspective  id="perspective3807" inkscape:vp_x="0 : 0.5 : 1" inkscape:persp3d-origin="0.5 : 0.33333333 : 1" sodipodi:type="inkscape:persp3d" inkscape:vp_z="1 : 0.5 : 1" inkscape:vp_y="0 : 1000 : 0">
		</inkscape:perspective>
	
		<inkscape:perspective  id="perspective3875" inkscape:vp_x="0 : 0.5 : 1" inkscape:persp3d-origin="0.5 : 0.33333333 : 1" sodipodi:type="inkscape:persp3d" inkscape:vp_z="1 : 0.5 : 1" inkscape:vp_y="0 : 1000 : 0">
		</inkscape:perspective>
	
		<inkscape:perspective  id="perspective4628" inkscape:vp_x="0 : 0.5 : 1" inkscape:persp3d-origin="0.5 : 0.33333333 : 1" sodipodi:type="inkscape:persp3d" inkscape:vp_z="1 : 0.5 : 1" inkscape:vp_y="0 : 1000 : 0">
		</inkscape:perspective>
	
		<inkscape:perspective  id="perspective4657" inkscape:vp_x="0 : 0.5 : 1" inkscape:persp3d-origin="0.5 : 0.33333333 : 1" sodipodi:type="inkscape:persp3d" inkscape:vp_z="1 : 0.5 : 1" inkscape:vp_y="0 : 1000 : 0">
		</inkscape:perspective>
	<g id="layer1" inkscape:label="Layer 1" inkscape:groupmode="layer">
		<text transform="matrix(1.2087 0 0 1 244.4468 380.2568)" fill="#FFFFFF" font-family="'ArialMT'" font-size="125.6088">redbrick</text>
		<text transform="matrix(0.9574 0 0 1 244.4468 421.043)" fill="#CCCCCC" font-family="'ArialMT'" font-size="34.6066">dcu networking society</text>
	</g>
</defs>
<linearGradient id="path2895_1_" gradientUnits="userSpaceOnUse" x1="99.1694" y1="-165.5732" x2="481.0404" y2="-165.5732" gradientTransform="matrix(0.2861 0 0 -0.2861 107.0614 324.3754)">
	<stop  offset="0" style="stop-color:#F40000"/>
	<stop  offset="1" style="stop-color:#760000"/>
</linearGradient>
<path id="path2895" sodipodi:nodetypes="csscccssssssc" fill="url(#path2895_1_)" stroke="#000000" stroke-width="2.8608" d="
	M136.855,415.014c-0.025-15.751-0.671-32.782-1.391-36.692c-0.201-1.09,0.286-1.419,7.58-5.125
	c26.506-13.468,70.596-41.783,98.413-62.816l1.523-0.196l0.205,2.577c0.47,2.953,0.521,6.136,0.478,9.969
	c-0.065,5.762-0.341,12.576,0.276,18.971c0.582,6.024,0.669,13.303,0.231,13.878c-0.343,0.45-6.687,4.687-26.527,17.813
	c-22.866,15.13-39.406,29.023-60.818,44.641c-5.337,3.893-19.358,15.269-19.815,15.269
	C136.941,433.301,136.872,425.071,136.855,415.014z"/>
<linearGradient id="path2899_1_" gradientUnits="userSpaceOnUse" x1="-168.4922" y1="-274.9736" x2="115.6104" y2="-274.9736" gradientTransform="matrix(0.2953 0 0 -0.2788 102.066 323.9767)">
	<stop  offset="0" style="stop-color:#2D0000"/>
	<stop  offset="1" style="stop-color:#850000"/>
</linearGradient>
<path id="path2899" sodipodi:nodetypes="cscccscccssssscc" fill="url(#path2899_1_)" stroke="#000000" stroke-width="2.8696" d="
	M129.922,433.526c-15.338-1.948-31.66-4.377-44.214-6.578c-6.717-1.178-26.081-4.863-30.325-5.772l-2.436-0.521l-0.19-1.818
	c-0.451-4.297-0.619-32.471-0.242-40.578c0.215-4.646,0.07-8.919,0.175-9.639l0.249-1.485l3.125,0.173
	c20.098,3.141,40.629,4.777,60.903,8.686c5.259,1.015,17.231,2.269,17.481,2.488c0.185,0.162,1.053,11.066,1.415,17.762
	c0.393,7.279,0.472,28.037,0.13,34.052c-0.188,3.294-0.307,3.898-0.765,3.87C134.928,434.146,132.541,433.858,129.922,433.526
	L129.922,433.526L129.922,433.526z"/>
<linearGradient id="path2897_1_" gradientUnits="userSpaceOnUse" x1="-182.9185" y1="-53.0557" x2="468.3736" y2="-53.0557" gradientTransform="matrix(0.2829 0 0 -0.2883 107.9928 324.8095)">
	<stop  offset="0" style="stop-color:#F40000"/>
	<stop  offset="1" style="stop-color:#760000"/>
</linearGradient>
<path id="path2897" sodipodi:nodetypes="csccccccsssscccc" fill="url(#path2897_1_)" stroke="#000000" stroke-width="2.8559" d="
	M111.795,374.622c-2.725-0.766-18.235-2.031-21.552-2.402c-19.904-2.223-37.932-4.755-37.43-5.669l9.098-5.161l9.29-5.262
	c33.626-19.332,19.905-10.205,72.439-37.674l32.679-14.271l4.963-2.355c12.988,1.941,23.583,4.652,37.244,5.969
	c14.375,1.385,22.805,1.933,22.435,1.928c-0.042-0.001-1.904,2.043-5.271,4.593c-31.117,23.561-54.531,38.696-81.808,52.907
	c-1.128,0.588-13.817,8.11-14.923,8.672l-3.896,2.482l-7.398-1.109L111.795,374.622L111.795,374.622z"/>
</svg>
